<svg width="28.5" height="22.5" viewBox="0 0 38 30" fill="none" xmlns="http://www.w3.org/2000/svg">
<path d="M37.5 3.55469C36.0933 4.1659 34.605 4.56858 33.082 4.75C34.6826 3.8128 35.8862 2.32389 36.4672 0.562511C34.954 1.44735 33.3012 2.06819 31.5797 2.39844C30.8548 1.6387 29.9829 1.03431 29.0171 0.622C28.0514 0.209689 27.0118 -0.00192759 25.9617 1.323e-05C21.7102 1.323e-05 18.2695 3.39063 18.2695 7.5703C18.2665 8.15168 18.3331 8.73133 18.468 9.29686C15.4193 9.15394 12.434 8.37622 9.70311 7.01347C6.97222 5.65072 4.55585 3.73294 2.60859 1.38282C1.92545 2.53447 1.56417 3.84847 1.5625 5.1875C1.5625 7.81249 2.93203 10.1328 5 11.4922C3.77479 11.4631 2.57468 11.1388 1.50156 10.5469V10.6406C1.50156 14.3125 4.15781 17.3671 7.67344 18.0625C7.01233 18.2387 6.33107 18.328 5.64687 18.3281C5.16139 18.3289 4.67701 18.2818 4.20078 18.1875C5.17812 21.1953 8.02266 23.3828 11.3922 23.4453C8.6542 25.5553 5.29267 26.6958 1.83594 26.6874C1.22236 26.6865 0.609348 26.65 0 26.5781C3.51655 28.8235 7.60425 30.0113 11.7766 29.9999C25.9453 29.9999 33.6859 18.4609 33.6859 8.45311C33.6859 8.12499 33.6773 7.79686 33.6617 7.47655C35.1641 6.40785 36.4639 5.07977 37.5 3.55469Z" fill="#1DA1F2"/>
</svg>
